<?xml version="1.0" standalone="no"?><!DOCTYPE svg PUBLIC "-//W3C//DTD SVG 1.1//EN" "http://www.w3.org/Graphics/SVG/1.1/DTD/svg11.dtd"><svg t="1618899968144" class="icon" viewBox="0 0 1024 1024" version="1.1" xmlns="http://www.w3.org/2000/svg" p-id="3791" xmlns:xlink="http://www.w3.org/1999/xlink" width="200" height="200"><defs><style type="text/css"></style></defs><path d="M868 364.2h-45c-10.8 0-20.6-5.6-26-15s-5.4-20.6 0-30l22.5-39c8-13.8 10.1-30 5.9-45.5-4.2-15.5-14.1-28.5-27.9-36.4l-161.1-93c-13.8-8-30-10.1-45.5-5.9-15.5 4.2-28.5 14.1-36.4 27.9l-22.5 39c-5.4 9.4-15.1 15-26 15-10.8 0-20.6-5.6-26-15l-22.5-39c-8-13.8-20.9-23.8-36.4-27.9-15.5-4.2-31.7-2-45.5 5.9l-161.1 93c-28.7 16.5-38.5 53.3-22 82l22.5 39c5.4 9.4 5.4 20.6 0 30-5.4 9.4-15.1 15-26 15h-45c-33.1 0-60 26.9-60 60v186c0 33.1 26.9 60 60 60h45c10.8 0 20.6 5.6 26 15s5.4 20.6 0 30l-22.5 39c-8 13.8-10.1 30-5.9 45.5 4.2 15.5 14.1 28.5 27.9 36.4l161.1 93c9.2 5.3 19.4 8 29.8 8 5.2 0 10.5-0.7 15.7-2.1 15.5-4.2 28.5-14.1 36.4-27.9l22.5-39c5.4-9.4 15.1-15 26-15 10.8 0 20.6 5.6 26 15l22.5 39c16.5 28.7 53.3 38.5 82 22l161.1-93c28.7-16.5 38.5-53.3 22-82l-22.5-39c-5.4-9.4-5.4-20.6 0-30s15.1-15 26-15h45c33.1 0 60-26.9 60-60v-186c-0.1-33.1-27-60-60.1-60z m20 246c0 11-9 20-20 20h-45c-25.3 0-48 13.1-60.6 35s-12.7 48.1 0 70l22.5 39c5.5 9.5 2.2 21.8-7.3 27.3l-161.1 93c-4.6 2.6-10 3.3-15.2 2-5.2-1.4-9.5-4.7-12.2-9.3l-22.5-39c-12.7-21.9-35.3-35-60.6-35-25.3 0-48 13.1-60.6 35l-22.5 39c-5.5 9.6-17.8 12.8-27.3 7.3l-161.1-93c-4.6-2.6-7.9-7-9.3-12.2-1.4-5.2-0.7-10.6 2-15.2l22.5-39c12.7-21.9 12.7-48.1 0-70s-35.3-35-60.6-35h-45c-11 0-20-9-20-20v-186c0-11 9-20 20-20h45c25.3 0 48-13.1 60.6-35 12.7-21.9 12.7-48.1 0-70l-22.5-39c-5.5-9.6-2.2-21.8 7.3-27.3l161.1-93c4.6-2.6 10-3.3 15.2-2 5.2 1.4 9.5 4.7 12.2 9.3l22.5 39c12.7 21.9 35.3 35 60.6 35 25.3 0 48-13.1 60.6-35l22.5-39c5.5-9.6 17.8-12.8 27.3-7.3l161.1 93c4.6 2.6 7.9 7 9.3 12.2 1.4 5.2 0.7 10.6-2 15.2l-22.5 39c-12.7 21.9-12.7 48.1 0 70s35.3 35 60.6 35h45c11 0 20 9 20 20v186z" fill="#448088" p-id="3792"></path><path d="M506 333.3c-101.4 0-183.9 82.5-183.9 183.9S404.6 701 506 701s183.9-82.5 183.9-183.9c0-101.3-82.5-183.8-183.9-183.8z m0 327.7c-79.3 0-143.9-64.5-143.9-143.9 0-79.3 64.5-143.9 143.9-143.9s143.9 64.5 143.9 143.9S585.4 661 506 661z" fill="#448088" p-id="3793"></path></svg>