<?xml version="1.0" encoding="utf-8"?>
<svg version="1.1" xmlns:xlink="http://www.w3.org/1999/xlink" width="22px" height="20px" xmlns="http://www.w3.org/2000/svg">
  <g transform="matrix(1 0 0 1 -295 -273 )">
    <path d="M 11.5401785714286 19.765625  C 11.3928571428571 19.921875  11.2127976190476 20  11 20  C 10.7872023809524 20  10.6071428571429 19.921875  10.4598214285714 19.765625  L 2.79910714285714 11.9270833333333  C 2.71726190476191 11.8576388888889  2.60472470238095 11.7447916666667  2.46149553571429 11.5885416666667  C 2.31826636904762 11.4322916666667  2.09114583333333 11.1480034722222  1.78013392857143 10.7356770833333  C 1.46912202380952 10.3233506944444  1.19084821428571 9.90017361111111  0.9453125 9.46614583333333  C 0.699776785714286 9.03211805555556  0.480840773809524 8.50694444444444  0.288504464285714 7.890625  C 0.0961681547619048 7.27430555555555  0 6.67534722222222  0 6.09375  C 0 4.18402777777778  0.519717261904762 2.69097222222222  1.55915178571429 1.61458333333333  C 2.59858630952381 0.538194444444444  4.03497023809524 0  5.86830357142857 0  C 6.37574404761905 0  6.89341517857143 0.093315972222221  7.42131696428571 0.279947916666667  C 7.94921875 0.466579861111109  8.44029017857143 0.718315972222221  8.89453125 1.03515625  C 9.34877232142857 1.35199652777778  9.73958333333334 1.64930555555555  10.0669642857143 1.92708333333333  C 10.3943452380952 2.20486111111111  10.7053571428571 2.5  11 2.8125  C 11.2946428571429 2.5  11.6056547619048 2.20486111111111  11.9330357142857 1.92708333333333  C 12.2604166666667 1.64930555555555  12.6512276785714 1.35199652777778  13.10546875 1.03515625  C 13.5597098214286 0.718315972222221  14.05078125 0.466579861111109  14.5786830357143 0.279947916666667  C 15.1065848214286 0.093315972222221  15.624255952381 0  16.1316964285714 0  C 17.9650297619048 0  19.4014136904762 0.538194444444444  20.4408482142857 1.61458333333333  C 21.4802827380952 2.69097222222222  22 4.18402777777778  22 6.09375  C 22 8.01215277777778  21.0628720238095 9.96527777777778  19.1886160714286 11.953125  L 11.5401785714286 19.765625  Z " fill-rule="nonzero" fill="#e67a7a" stroke="none" transform="matrix(1 0 0 1 295 273 )" />
  </g>
</svg>